# File produced by Open Asset Import Library (http://www.assimp.sf.net)
# (assimp v3.1.202510665)

mtllib Bungalo.mtl

# vertex positions
v 222.710815 -0.000015 222.710831
v -222.710815 -0.000015 222.710831
v -222.710831 -0.000015 -222.710815
v 222.710831 -0.000015 -222.710815
v 222.710815 19.685028 222.710831
v 222.710831 19.685028 -222.710815
v -222.710831 19.685028 -222.710815
v -222.710815 19.685028 222.710831
v 250.549667 314.960632 250.549667
v -250.549667 314.960632 250.549667
v -250.549667 314.960632 -250.549667
v 250.549667 314.960632 -250.549667
v 200.439743 346.456696 -200.439728
v -200.439743 346.456696 -200.439728
v -200.439728 346.456696 200.439743
v 200.439728 346.456696 200.439743
v 150.329803 377.952759 -150.329788
v -150.329788 377.952759 -150.329803
v -150.329788 377.952759 150.329803
v 150.329788 377.952759 150.329803
v 100.219872 409.448822 -100.219864
v -100.219872 409.448822 -100.219864
v -100.219864 409.448822 100.219872
v 100.219864 409.448822 100.219872
v 50.109936 440.944885 -50.109932
v -50.109936 440.944885 -50.109932
v -50.109932 440.944885 50.109936
v 50.109932 440.944885 50.109936
v 0.000000 472.440979 0.000000
v -202.755936 19.685028 222.440948
v -222.440979 19.685028 222.440964
v -222.440964 19.685028 202.755920
v -202.755936 19.685028 202.755905
v -222.440964 314.960632 202.755920
v -222.440979 314.960632 222.440964
v -202.755936 314.960632 222.440948
v -202.755936 314.960632 202.755905
v 222.440964 19.685028 222.440979
v 202.755920 19.685028 222.440964
v 202.755905 19.685028 202.755936
v 222.440948 19.685028 202.755936
v 202.755905 314.960632 202.755936
v 202.755920 314.960632 222.440964
v 222.440964 314.960632 222.440979
v 222.440948 314.960632 202.755936
v 222.440964 19.685028 -202.755920
v 202.755936 19.685028 -202.755905
v 202.755936 19.685028 -222.440948
v 222.440979 19.685028 -222.440964
v 202.755936 314.960632 -222.440948
v 202.755936 314.960632 -202.755905
v 222.440964 314.960632 -202.755920
v 222.440979 314.960632 -222.440964
v -202.755905 19.685028 -202.755936
v -222.440948 19.685028 -202.755936
v -222.440964 19.685028 -222.440979
v -202.755920 19.685028 -222.440964
v -222.440964 314.960632 -222.440979
v -222.440948 314.960632 -202.755936
v -202.755905 314.960632 -202.755936
v -202.755920 314.960632 -222.440964

# UV coordinates
vt 0.235038 0.529923
vt 0.000000 0.764962
vt 0.235038 1.000000
vt 0.470077 0.764962
vt 0.264418 0.000001
vt 0.000000 0.264419
vt 0.264418 0.528837
vt 0.528836 0.264419
vt 0.475953 0.264419
vt 0.264418 0.475953
vt 0.052884 0.264419
vt 0.264418 0.052884
vt 0.423069 0.264419
vt 0.264418 0.423070
vt 0.105767 0.264419
vt 0.264418 0.105768
vt 0.370186 0.264419
vt 0.264418 0.370186
vt 0.158651 0.264419
vt 0.264418 0.158651
vt 0.317302 0.264419
vt 0.264418 0.317302
vt 0.211535 0.264419
vt 0.264418 0.211535
vt 0.264418 0.264419
vt 0.855016 0.035616
vt 0.869705 0.035616
vt 0.869705 0.050306
vt 0.855016 0.050306
vt 0.881315 0.055540
vt 0.870928 0.045153
vt 0.881315 0.034766
vt 0.891702 0.045153
vt 0.694740 0.254042
vt 0.687407 0.033815
vt 0.702089 0.033326
vt 0.709421 0.253553
vt 0.778637 0.022340
vt 0.998863 0.015007
vt 0.999352 0.029689
vt 0.779126 0.037022
vt 0.719062 0.032761
vt 0.726394 0.252988
vt 0.711713 0.253476
vt 0.704380 0.033250
vt 0.751122 0.014682
vt 0.530895 0.022015
vt 0.530407 0.007333
vt 0.750633 0.000000
vt 0.654522 0.034875
vt 0.669212 0.034875
vt 0.669212 0.049564
vt 0.654522 0.049564
vt 0.948146 0.053315
vt 0.937759 0.042928
vt 0.948146 0.032540
vt 0.958534 0.042928
vt 0.768997 0.243132
vt 0.761664 0.022905
vt 0.776346 0.022416
vt 0.783679 0.242643
vt 0.778637 0.284115
vt 0.998863 0.276782
vt 0.999352 0.291464
vt 0.779126 0.298797
vt 0.759373 0.031419
vt 0.766706 0.251645
vt 0.752024 0.252134
vt 0.744691 0.031908
vt 0.999352 0.275609
vt 0.779126 0.282942
vt 0.778637 0.268260
vt 0.998863 0.260927
vt 0.622697 0.035934
vt 0.637387 0.035934
vt 0.637387 0.050624
vt 0.622697 0.050624
vt 0.925869 0.054057
vt 0.915482 0.043669
vt 0.925869 0.033282
vt 0.936257 0.043669
vt 0.728686 0.252911
vt 0.721353 0.032685
vt 0.736035 0.032196
vt 0.743367 0.252422
vt 0.753177 0.007333
vt 0.973404 0.000000
vt 0.973893 0.014682
vt 0.753666 0.022015
vt 0.685116 0.033891
vt 0.692448 0.254118
vt 0.677767 0.254607
vt 0.670434 0.034380
vt 0.752183 0.030501
vt 0.531956 0.037834
vt 0.531467 0.023152
vt 0.751694 0.015820
vt 0.638610 0.035404
vt 0.653300 0.035404
vt 0.653300 0.050094
vt 0.638610 0.050094
vt 0.903592 0.054798
vt 0.893205 0.044411
vt 0.903592 0.034024
vt 0.913979 0.044411
vt 0.967369 0.252381
vt 0.960036 0.032155
vt 0.974718 0.031666
vt 0.982051 0.251893
vt 0.555866 0.275677
vt 0.776093 0.268345
vt 0.776581 0.283026
vt 0.556355 0.290359
vt 0.991691 0.031101
vt 0.999024 0.251327
vt 0.984342 0.251816
vt 0.977009 0.031590
vt 0.965406 0.260884
vt 0.745180 0.268217
vt 0.744691 0.253535
vt 0.964917 0.246203

# vertex normals
vn 0.000000 -1.000000 -0.000000
vn -0.000000 1.000000 0.000000
vn 0.287183 0.913812 -0.287183
vn 0.287183 0.913812 -0.287183
vn -0.287183 0.913812 -0.287183
vn -0.287183 0.913812 -0.287183
vn -0.287183 0.913812 0.287183
vn -0.287183 0.913812 0.287183
vn 0.287183 0.913812 0.287183
vn 0.287183 0.913812 0.287183
vn 0.287183 0.913812 -0.287183
vn -0.287183 0.913812 -0.287183
vn -0.287183 0.913812 0.287183
vn 0.287183 0.913812 0.287183
vn 0.287183 0.913812 -0.287183
vn -0.287183 0.913812 -0.287183
vn -0.287183 0.913812 0.287183
vn 0.287183 0.913812 0.287183
vn 0.287183 0.913812 -0.287183
vn -0.287183 0.913812 -0.287183
vn -0.287183 0.913812 0.287183
vn 0.287183 0.913812 0.287183
vn -0.287183 0.913812 -0.287183
vn -0.287183 0.913812 0.287183
vn 0.287183 0.913812 0.287183
vn 0.000000 -0.000000 1.000000
vn 1.000000 -0.000000 0.000000
vn -0.000000 0.000000 -1.000000
vn -1.000000 0.000000 -0.000000
vn -0.000000 -0.000000 1.000000
vn 1.000000 0.000000 -0.000000
vn 0.000000 0.000000 -1.000000
vn -1.000000 -0.000000 0.000000
vn 1.000000 -0.000000 0.000000
vn -1.000000 -0.000000 0.000000
vn 0.000000 -0.000000 1.000000
vn 0.000000 0.000000 -1.000000

# Mesh
g Cylinder001
usemtl DefaultMaterial
f 1/1/1 2/2/1 3/3/1
f 3/3/1 4/4/1 1/1/1
f 5/1/2 6/4/2 7/3/2
f 7/3/2 8/2/2 5/1/2
f 9/5/1 10/6/1 11/7/1
f 11/7/1 12/8/1 9/5/1
f 13/9/3 12/8/4 11/7/5
f 11/7/5 14/10/6 13/9/3
f 14/10/6 11/7/5 10/6/7
f 10/6/7 15/11/8 14/10/6
f 15/11/8 10/6/7 9/5/9
f 9/5/9 16/12/10 15/11/8
f 16/12/10 9/5/9 12/8/4
f 12/8/4 13/9/3 16/12/10
f 17/13/11 13/9/3 14/10/6
f 14/10/6 18/14/12 17/13/11
f 18/14/12 14/10/6 15/11/8
f 15/11/8 19/15/13 18/14/12
f 19/15/13 15/11/8 16/12/10
f 16/12/10 20/16/14 19/15/13
f 20/16/14 16/12/10 13/9/3
f 13/9/3 17/13/11 20/16/14
f 21/17/15 17/13/11 18/14/12
f 18/14/12 22/18/16 21/17/15
f 22/18/16 18/14/12 19/15/13
f 19/15/13 23/19/17 22/18/16
f 23/19/17 19/15/13 20/16/14
f 20/16/14 24/20/18 23/19/17
f 24/20/18 20/16/14 17/13/11
f 17/13/11 21/17/15 24/20/18
f 25/21/19 21/17/15 22/18/16
f 22/18/16 26/22/20 25/21/19
f 26/22/20 22/18/16 23/19/17
f 23/19/17 27/23/21 26/22/20
f 27/23/21 23/19/17 24/20/18
f 24/20/18 28/24/22 27/23/21
f 28/24/22 24/20/18 21/17/15
f 21/17/15 25/21/19 28/24/22
f 25/21/19 26/22/20 29/25/23
f 26/22/20 27/23/21 29/25/24
f 27/23/21 28/24/22 29/25/25
f 28/24/22 25/21/19 29/25/11
f 30/26/1 31/27/1 32/28/1
f 32/28/1 33/29/1 30/26/1
f 34/30/2 35/31/2 36/32/2
f 36/32/2 37/33/2 34/30/2
f 35/34/26 31/35/26 30/36/26
f 30/36/26 36/37/26 35/34/26
f 36/38/27 30/39/27 33/40/27
f 33/40/27 37/41/27 36/38/27
f 37/42/28 33/43/28 32/44/28
f 32/44/28 34/45/28 37/42/28
f 34/46/29 32/47/29 31/48/29
f 31/48/29 35/49/29 34/46/29
f 38/50/1 39/51/1 40/52/1
f 40/52/1 41/53/1 38/50/1
f 42/54/2 43/55/2 44/56/2
f 44/56/2 45/57/2 42/54/2
f 43/58/30 39/59/30 38/60/30
f 38/60/30 44/61/30 43/58/30
f 44/62/31 38/63/31 41/64/31
f 41/64/31 45/65/31 44/62/31
f 45/66/32 41/67/32 40/68/32
f 40/68/32 42/69/32 45/66/32
f 42/70/33 40/71/33 39/72/33
f 39/72/33 43/73/33 42/70/33
f 46/74/1 47/75/1 48/76/1
f 48/76/1 49/77/1 46/74/1
f 50/78/2 51/79/2 52/80/2
f 52/80/2 53/81/2 50/78/2
f 51/82/26 47/83/26 46/84/26
f 46/84/26 52/85/26 51/82/26
f 52/86/27 46/87/27 49/88/27
f 49/88/27 53/89/27 52/86/27
f 53/90/28 49/91/28 48/92/28
f 48/92/28 50/93/28 53/90/28
f 50/94/29 48/95/29 47/96/29
f 47/96/29 51/97/29 50/94/29
f 54/98/1 55/99/1 56/100/1
f 56/100/1 57/101/1 54/98/1
f 58/102/2 59/103/2 60/104/2
f 60/104/2 61/105/2 58/102/2
f 59/106/30 55/107/30 54/108/30
f 54/108/30 60/109/30 59/106/30
f 60/110/31 54/111/31 57/112/31
f 57/112/31 61/113/31 60/110/31
f 61/114/32 57/115/32 56/116/32
f 56/116/32 58/117/32 61/114/32
f 58/118/33 56/119/33 55/120/33
f 55/120/33 59/121/33 58/118/33
f 6/4/34 5/1/34 1/1/34
f 1/1/34 4/4/34 6/4/34
f 8/2/35 7/3/35 3/3/35
f 3/3/35 2/2/35 8/2/35
f 5/1/36 8/2/36 2/2/36
f 2/2/36 1/1/36 5/1/36
f 7/3/37 6/4/37 4/4/37
f 4/4/37 3/3/37 7/3/37
